  0
SECTION
  2
HEADER
  9
$ACADVER
  1
AC1012
  9
$DWGCODEPAGE
  3
ansi_932
  9
$INSBASE
 10
0.0
 20
0.0
 30
0.0
  9
$EXTMIN
 10
28.2964705882352
 20
144.4458823529412
 30
0.0
  9
$EXTMAX
 10
200.2964705882352
 20
260.9458823529412
 30
0.0
  9
$LIMMIN
 10
0.0
 20
0.0
  9
$LIMMAX
 10
420.0
 20
297.0
  9
$ORTHOMODE
 70
     0
  9
$REGENMODE
 70
     1
  9
$FILLMODE
 70
     1
  9
$QTEXTMODE
 70
     0
  9
$MIRRTEXT
 70
     0
  9
$DRAGMODE
 70
     2
  9
$LTSCALE
 40
1.0
  9
$OSMODE
 70
   511
  9
$ATTMODE
 70
     1
  9
$TEXTSIZE
 40
2.5
  9
$TRACEWID
 40
1.0
  9
$TEXTSTYLE
  7
STANDARD
  9
$CLAYER
  8
外形線
  9
$CELTYPE
  6
CONTINUOUS
  9
$CECOLOR
 62
   256
  9
$CELTSCALE
 40
1.0
  9
$DELOBJ
 70
     1
  9
$DISPSILH
 70
     0
  9
$DIMSCALE
 40
1.0
  9
$DIMASZ
 40
2.5
  9
$DIMEXO
 40
0.625
  9
$DIMDLI
 40
3.75
  9
$DIMRND
 40
0.0
  9
$DIMDLE
 40
0.0
  9
$DIMEXE
 40
1.25
  9
$DIMTP
 40
0.0
  9
$DIMTM
 40
0.0
  9
$DIMTXT
 40
2.5
  9
$DIMCEN
 40
2.5
  9
$DIMTSZ
 40
0.0
  9
$DIMTOL
 70
     0
  9
$DIMLIM
 70
     0
  9
$DIMTIH
 70
     0
  9
$DIMTOH
 70
     0
  9
$DIMSE1
 70
     0
  9
$DIMSE2
 70
     0
  9
$DIMTAD
 70
     1
  9
$DIMZIN
 70
     8
  9
$DIMBLK
  1

  9
$DIMASO
 70
     1
  9
$DIMSHO
 70
     1
  9
$DIMPOST
  1

  9
$DIMAPOST
  1

  9
$DIMALT
 70
     0
  9
$DIMALTD
 70
     3
  9
$DIMALTF
 40
0.03937007874016
  9
$DIMLFAC
 40
1.0
  9
$DIMTOFL
 70
     1
  9
$DIMTVP
 40
0.0
  9
$DIMTIX
 70
     0
  9
$DIMSOXD
 70
     0
  9
$DIMSAH
 70
     0
  9
$DIMBLK1
  1

  9
$DIMBLK2
  1

  9
$DIMSTYLE
  2
ISO-25
  9
$DIMCLRD
 70
     0
  9
$DIMCLRE
 70
     0
  9
$DIMCLRT
 70
     0
  9
$DIMTFAC
 40
1.0
  9
$DIMGAP
 40
0.625
  9
$DIMJUST
 70
     0
  9
$DIMSD1
 70
     0
  9
$DIMSD2
 70
     0
  9
$DIMTOLJ
 70
     0
  9
$DIMTZIN
 70
     8
  9
$DIMALTZ
 70
     0
  9
$DIMALTTZ
 70
     0
  9
$DIMFIT
 70
     5
  9
$DIMUPT
 70
     0
  9
$DIMUNIT
 70
     2
  9
$DIMDEC
 70
     2
  9
$DIMTDEC
 70
     2
  9
$DIMALTU
 70
     2
  9
$DIMALTTD
 70
     3
  9
$DIMTXSTY
  7
STANDARD
  9
$DIMAUNIT
 70
     0
  9
$LUNITS
 70
     2
  9
$LUPREC
 70
     3
  9
$SKETCHINC
 40
1.0
  9
$FILLETRAD
 40
10.0
  9
$AUNITS
 70
     0
  9
$AUPREC
 70
     0
  9
$MENU
  1
.
  9
$ELEVATION
 40
0.0
  9
$PELEVATION
 40
0.0
  9
$THICKNESS
 40
0.0
  9
$LIMCHECK
 70
     0
  9
$CHAMFERA
 40
5.0
  9
$CHAMFERB
 40
5.0
  9
$CHAMFERC
 40
20.0
  9
$CHAMFERD
 40
0.0
  9
$SKPOLY
 70
     0
  9
$TDCREATE
 40
2455023.012359514
  9
$TDUPDATE
 40
2456881.772966516
  9
$TDINDWG
 40
0.9652245255
  9
$TDUSRTIMER
 40
2456881.397748947
  9
$USRTIMER
 70
     1
  9
$ANGBASE
 50
0.0
  9
$ANGDIR
 70
     0
  9
$PDMODE
 70
     0
  9
$PDSIZE
 40
0.0
  9
$PLINEWID
 40
0.0
  9
$COORDS
 70
     1
  9
$SPLFRAME
 70
     0
  9
$SPLINETYPE
 70
     6
  9
$SPLINESEGS
 70
     8
  9
$ATTDIA
 70
     0
  9
$ATTREQ
 70
     1
  9
$HANDLING
 70
     1
  9
$HANDSEED
  5
AB0
  9
$SURFTAB1
 70
     6
  9
$SURFTAB2
 70
     6
  9
$SURFTYPE
 70
     6
  9
$SURFU
 70
     6
  9
$SURFV
 70
     6
  9
$UCSNAME
  2

  9
$UCSORG
 10
0.0
 20
0.0
 30
0.0
  9
$UCSXDIR
 10
1.0
 20
0.0
 30
0.0
  9
$UCSYDIR
 10
0.0
 20
1.0
 30
0.0
  9
$PUCSNAME
  2

  9
$PUCSORG
 10
0.0
 20
0.0
 30
0.0
  9
$PUCSXDIR
 10
1.0
 20
0.0
 30
0.0
  9
$PUCSYDIR
 10
0.0
 20
1.0
 30
0.0
  9
$USERI1
 70
     0
  9
$USERI2
 70
     0
  9
$USERI3
 70
     0
  9
$USERI4
 70
     0
  9
$USERI5
 70
     0
  9
$USERR1
 40
0.0
  9
$USERR2
 40
0.0
  9
$USERR3
 40
0.0
  9
$USERR4
 40
0.0
  9
$USERR5
 40
0.0
  9
$WORLDVIEW
 70
     1
  9
$SHADEDGE
 70
     3
  9
$SHADEDIF
 70
    70
  9
$TILEMODE
 70
     1
  9
$MAXACTVP
 70
    64
  9
$PINSBASE
 10
0.0
 20
0.0
 30
0.0
  9
$PLIMCHECK
 70
     0
  9
$PEXTMIN
 10
1.000000000000000E+20
 20
1.000000000000000E+20
 30
1.000000000000000E+20
  9
$PEXTMAX
 10
-1.000000000000000E+20
 20
-1.000000000000000E+20
 30
-1.000000000000000E+20
  9
$PLIMMIN
 10
0.0
 20
0.0
  9
$PLIMMAX
 10
0.0
 20
0.0
  9
$UNITMODE
 70
     0
  9
$VISRETAIN
 70
     1
  9
$PLINEGEN
 70
     0
  9
$PSLTSCALE
 70
     1
  9
$TREEDEPTH
 70
  3020
  9
$PICKSTYLE
 70
     0
  9
$CMLSTYLE
  2
STANDARD
  9
$CMLJUST
 70
     0
  9
$CMLSCALE
 40
20.0
  9
$SAVEIMAGES
 70
     1
  0
ENDSEC
  0
SECTION
  2
CLASSES
  0
CLASS
  1
ACDBDICTIONARYWDFLT
  2
AcDbDictionaryWithDefault
  3
ObjectDBX Classes
 90
    32768
280
     0
281
     0
  0
CLASS
  1
VISUALSTYLE
  2
AcDbVisualStyle
  3
ObjectDBX Classes
 90
     4095
280
     0
281
     0
  0
CLASS
  1
TABLESTYLE
  2
AcDbTableStyle
  3
ObjectDBX Classes
 90
     4095
280
     0
281
     0
  0
CLASS
  1
DICTIONARYVAR
  2
AcDbDictionaryVar
  3
ObjectDBX Classes
 90
        0
280
     0
281
     0
  0
CLASS
  1
SCALE
  2
AcDbScale
  3
ObjectDBX Classes
 90
     1153
280
     0
281
     0
  0
CLASS
  1
CELLSTYLEMAP
  2
AcDbCellStyleMap
  3
ObjectDBX Classes
 90
     1152
280
     0
281
     0
  0
CLASS
  1
RASTERVARIABLES
  2
AcDbRasterVariables
  3
ISM
 90
    32768
280
     0
281
     0
  0
CLASS
  1
MATERIAL
  2
AcDbMaterial
  3
ObjectDBX Classes
 90
     1153
280
     0
281
     0
  0
CLASS
  1
SUN
  2
AcDbSun
  3
SCENEOE
 90
     1153
280
     0
281
     0
  0
CLASS
  1
DIMASSOC
  2
AcDbDimAssoc
  3
"AcDbDimAssoc|Product Desc:     AcDim ARX App For Dimension|Company:          Autodesk, Inc.|WEB Address:      www.autodesk.com"
 90
        0
280
     0
281
     0
  0
CLASS
  1
XRECORD
  2
AcDbXrecord
  3
ObjectDBX Classes
 90
    32768
280
     0
281
     0
  0
ENDSEC
  0
SECTION
  2
TABLES
  0
TABLE
  2
VPORT
  5
8
330
0
100
AcDbSymbolTable
 70
     1
  0
VPORT
  5
29
330
8
100
AcDbSymbolTableRecord
100
AcDbViewportTableRecord
  2
*ACTIVE
 70
     0
 10
0.0
 20
0.0
 11
1.0
 21
1.0
 12
215.6410990811313
 22
106.3759790043389
 13
0.0
 23
0.0
 14
10.0
 24
10.0
 15
10.0
 25
10.0
 16
0.0
 26
0.0
 36
1.0
 17
-134.186915887849
 27
0.0
 37
0.0
 40
199.0302922678485
 41
1.272
 42
50.0
 43
0.0
 44
0.0
 50
0.0
 51
0.0
 71
    16
 72
  1000
 73
     1
 74
     3
 75
     0
 76
     0
 77
     0
 78
     0
  0
ENDTAB
  0
TABLE
  2
LTYPE
  5
5
330
0
100
AcDbSymbolTable
 70
     2
  0
LTYPE
  5
14
330
5
100
AcDbSymbolTableRecord
100
AcDbLinetypeTableRecord
  2
BYBLOCK
 70
     0
  3

 72
    65
 73
     0
 40
0.0
  0
LTYPE
  5
15
330
5
100
AcDbSymbolTableRecord
100
AcDbLinetypeTableRecord
  2
BYLAYER
 70
     0
  3

 72
    65
 73
     0
 40
0.0
  0
LTYPE
  5
16
330
5
100
AcDbSymbolTableRecord
100
AcDbLinetypeTableRecord
  2
CONTINUOUS
 70
     0
  3
Solid line
 72
    65
 73
     0
 40
0.0
  0
LTYPE
  5
BC
330
5
100
AcDbSymbolTableRecord
100
AcDbLinetypeTableRecord
  2
DASHDOT
 70
     0
  3
DashDot __  . __  . __  . __  . __  . __  . __ 
 72
    65
 73
     4
 40
25.4
 49
12.7
 74
     0
 49
-6.35
 74
     0
 49
0.0
 74
     0
 49
-6.35
 74
     0
  0
ENDTAB
  0
TABLE
  2
LAYER
  5
2
102
{ACAD_XDICTIONARY
360
B7
102
}
330
0
100
AcDbSymbolTable
 70
     7
  0
LAYER
  5
10
330
2
100
AcDbSymbolTableRecord
100
AcDbLayerTableRecord
  2
0
 70
     0
 62
     7
  6
CONTINUOUS
  0
LAYER
  5
BA
330
2
100
AcDbSymbolTableRecord
100
AcDbLayerTableRecord
  2
中心線
 70
     0
 62
     1
  6
CONTINUOUS
1001
ACAECLAYERSTANDARD
1000

1000

  0
LAYER
  5
BD
330
2
100
AcDbSymbolTableRecord
100
AcDbLayerTableRecord
  2
外形線
 70
     0
 62
     7
  6
CONTINUOUS
1001
ACAECLAYERSTANDARD
1000

1000

  0
LAYER
  5
BE
330
2
100
AcDbSymbolTableRecord
100
AcDbLayerTableRecord
  2
実線
 70
     0
 62
     7
  6
CONTINUOUS
1001
ACAECLAYERSTANDARD
1000

1000

  0
LAYER
  5
BF
330
2
100
AcDbSymbolTableRecord
100
AcDbLayerTableRecord
  2
補助線
 70
     0
 62
     4
  6
CONTINUOUS
1001
ACAECLAYERSTANDARD
1000

1000

  0
LAYER
  5
C0
330
2
100
AcDbSymbolTableRecord
100
AcDbLayerTableRecord
  2
寸法線
 70
     0
 62
     3
  6
CONTINUOUS
1001
ACAECLAYERSTANDARD
1000

1000

  0
LAYER
  5
107
330
2
100
AcDbSymbolTableRecord
100
AcDbLayerTableRecord
  2
DEFPOINTS
 70
     0
 62
     7
  6
CONTINUOUS
  0
ENDTAB
  0
TABLE
  2
STYLE
  5
3
330
0
100
AcDbSymbolTable
 70
     1
  0
STYLE
  5
11
330
3
100
AcDbSymbolTableRecord
100
AcDbTextStyleTableRecord
  2
STANDARD
 70
     0
 40
0.0
 41
1.0
 50
0.0
 71
     0
 42
2.5
  3
arial.ttf
  4

1001
ACAD
1000
Arial
1071
        0
  0
ENDTAB
  0
TABLE
  2
VIEW
  5
6
330
0
100
AcDbSymbolTable
 70
     0
  0
ENDTAB
  0
TABLE
  2
UCS
  5
7
330
0
100
AcDbSymbolTable
 70
     0
  0
ENDTAB
  0
TABLE
  2
APPID
  5
9
330
0
100
AcDbSymbolTable
 70
     3
  0
APPID
  5
12
330
9
100
AcDbSymbolTableRecord
100
AcDbRegAppTableRecord
  2
ACAD
 70
     0
  0
APPID
  5
BB
330
9
100
AcDbSymbolTableRecord
100
AcDbRegAppTableRecord
  2
ACAECLAYERSTANDARD
 70
     0
  0
APPID
  5
221
330
9
100
AcDbSymbolTableRecord
100
AcDbRegAppTableRecord
  2
ACAD_DSTYLE_DIMRADIAL_EXTE
 70
     0
  0
ENDTAB
  0
TABLE
  2
DIMSTYLE
  5
A
330
0
100
AcDbSymbolTable
 70
     1
  0
DIMSTYLE
105
27
330
A
100
AcDbSymbolTableRecord
100
AcDbDimStyleTableRecord
  2
ISO-25
 70
     0
  3

  4

  5

  6

  7

 40
1.0
 41
2.5
 42
0.625
 43
3.75
 44
1.25
 45
0.0
 46
0.0
 47
0.0
 48
0.0
140
2.5
141
2.5
142
0.0
143
0.03937007874016
144
1.0
145
0.0
146
1.0
147
0.625
 71
     0
 72
     0
 73
     0
 74
     0
 75
     0
 76
     0
 77
     1
 78
     8
170
     0
171
     3
172
     1
173
     0
174
     0
175
     0
176
     0
177
     0
178
     0
270
     2
271
     2
272
     2
273
     2
274
     3
340
11
275
     0
280
     0
281
     0
282
     0
283
     0
284
     8
285
     0
286
     0
287
     3
288
     0
  0
ENDTAB
  0
TABLE
  2
BLOCK_RECORD
  5
1
330
0
100
AcDbSymbolTable
 70
     1
  0
BLOCK_RECORD
  5
1F
330
1
100
AcDbSymbolTableRecord
100
AcDbBlockTableRecord
  2
*MODEL_SPACE
  0
BLOCK_RECORD
  5
1B
330
1
100
AcDbSymbolTableRecord
100
AcDbBlockTableRecord
  2
*PAPER_SPACE
  0
BLOCK_RECORD
  5
23
330
1
100
AcDbSymbolTableRecord
100
AcDbBlockTableRecord
  2
*PAPER_SPACE0
  0
ENDTAB
  0
ENDSEC
  0
SECTION
  2
BLOCKS
  0
BLOCK
  5
20
330
1F
100
AcDbEntity
  8
0
100
AcDbBlockBegin
  2
*MODEL_SPACE
 70
     0
 10
0.0
 20
0.0
 30
0.0
  3
*MODEL_SPACE
  1

  0
ENDBLK
  5
21
330
1F
100
AcDbEntity
  8
0
100
AcDbBlockEnd
  0
BLOCK
  5
1C
330
1B
100
AcDbEntity
 67
     1
  8
0
100
AcDbBlockBegin
  2
*PAPER_SPACE
 70
     0
 10
0.0
 20
0.0
 30
0.0
  3
*PAPER_SPACE
  1

  0
ENDBLK
  5
1D
330
1B
100
AcDbEntity
 67
     1
  8
0
100
AcDbBlockEnd
  0
BLOCK
  5
24
330
23
100
AcDbEntity
  8
0
100
AcDbBlockBegin
  2
*PAPER_SPACE0
 70
     0
 10
0.0
 20
0.0
 30
0.0
  3
*PAPER_SPACE0
  1
*PAPER_SPACE0
  0
ENDBLK
  5
25
330
23
100
AcDbEntity
  8
0
100
AcDbBlockEnd
  0
ENDSEC
  0
SECTION
  2
ENTITIES
  0
LINE
  5
9EE
330
1F
100
AcDbEntity
  8
外形線
  6
CONTINUOUS
100
AcDbLine
 10
152.0481553200911
 20
49.18071987634721
 30
0.0
 11
141.1481553200911
 21
49.18071987634721
 31
0.0
  0
LINE
  5
9EF
330
1F
100
AcDbEntity
  8
外形線
  6
CONTINUOUS
100
AcDbLine
 10
152.0481553200911
 20
124.9807198763472
 30
0.0
 11
141.1481553200911
 21
124.9807198763472
 31
0.0
  0
LINE
  5
9F2
330
1F
100
AcDbEntity
  8
外形線
  6
CONTINUOUS
100
AcDbLine
 10
140.1481553200911
 20
136.3807198763472
 30
0.0
 11
64.84815532009102
 21
136.3807198763472
 31
0.0
  0
LINE
  5
9F3
330
1F
100
AcDbEntity
  8
外形線
  6
CONTINUOUS
100
AcDbLine
 10
140.1481553200911
 20
37.78071987634721
 30
0.0
 11
50.34815532009104
 21
37.78071987634721
 31
0.0
  0
LINE
  5
9F4
330
1F
100
AcDbEntity
  8
外形線
  6
CONTINUOUS
100
AcDbLine
 10
38.44815532009105
 20
49.18071987634721
 30
0.0
 11
38.44815532009105
 21
98.9807198763472
 31
0.0
  0
LINE
  5
9F5
330
1F
100
AcDbEntity
  8
外形線
  6
CONTINUOUS
100
AcDbLine
 10
152.0481553200911
 20
49.18071987634721
 30
0.0
 11
152.0481553200911
 21
124.9807198763472
 31
0.0
  0
CIRCLE
  5
A05
330
1F
100
AcDbEntity
  8
外形線
  6
CONTINUOUS
100
AcDbCircle
 10
53.24815532009107
 20
121.5807198763472
 30
0.0
 40
1.5
  0
CIRCLE
  5
A06
330
1F
100
AcDbEntity
  8
外形線
  6
CONTINUOUS
100
AcDbCircle
 10
137.2481553200911
 20
121.5807198763472
 30
0.0
 40
1.5
  0
CIRCLE
  5
A07
330
1F
100
AcDbEntity
  8
外形線
  6
CONTINUOUS
100
AcDbCircle
 10
53.24815532009107
 20
52.58071987634721
 30
0.0
 40
1.5
  0
CIRCLE
  5
A08
330
1F
100
AcDbEntity
  8
外形線
  6
CONTINUOUS
100
AcDbCircle
 10
137.2481553200911
 20
52.58071987634721
 30
0.0
 40
1.5
  0
LINE
  5
A09
330
1F
100
AcDbEntity
  8
外形線
  6
CONTINUOUS
100
AcDbLine
 10
44.44815532009105
 20
111.9807198763472
 30
0.0
 11
38.44815532009105
 21
111.9807198763472
 31
0.0
  0
LINE
  5
A0A
330
1F
100
AcDbEntity
  8
外形線
  6
CONTINUOUS
100
AcDbLine
 10
44.44815532009105
 20
98.98071987634721
 30
0.0
 11
38.44815532009105
 21
98.98071987634721
 31
0.0
  0
LINE
  5
A0C
330
1F
100
AcDbEntity
  8
外形線
  6
CONTINUOUS
100
AcDbLine
 10
38.44815532009105
 20
111.9807198763472
 30
0.0
 11
38.44815532009105
 21
124.9807198763472
 31
0.0
  0
LINE
  5
A0D
330
1F
100
AcDbEntity
  8
外形線
  6
CONTINUOUS
100
AcDbLine
 10
55.84815532009105
 20
128.3807198763472
 30
0.0
 11
55.84815532009105
 21
136.3807198763472
 31
0.0
  0
LINE
  5
A0E
330
1F
100
AcDbEntity
  8
外形線
  6
CONTINUOUS
100
AcDbLine
 10
64.84815532009105
 20
128.3807198763472
 30
0.0
 11
64.84815532009105
 21
136.3807198763472
 31
0.0
  0
LINE
  5
A10
330
1F
100
AcDbEntity
  8
外形線
  6
CONTINUOUS
100
AcDbLine
 10
55.84815532009102
 20
136.3807198763472
 30
0.0
 11
50.34815532009105
 21
136.3807198763472
 31
0.0
  0
ARC
  5
A11
330
1F
100
AcDbEntity
  8
外形線
  6
CONTINUOUS
100
AcDbCircle
 10
49.84815532009105
 20
124.9807198763472
 30
0.0
 40
0.5
100
AcDbArc
 50
180.0
 51
0.0
  0
LINE
  5
A13
330
1F
100
AcDbEntity
  8
外形線
  6
CONTINUOUS
100
AcDbLine
 10
49.34815532009105
 20
124.9807198763472
 30
0.0
 11
38.44815532009105
 21
124.9807198763472
 31
0.0
  0
ARC
  5
A14
330
1F
100
AcDbEntity
  8
外形線
  6
CONTINUOUS
100
AcDbCircle
 10
49.84815532009105
 20
49.18071987634721
 30
0.0
 40
0.5
100
AcDbArc
 50
0.0
 51
180.0
  0
ARC
  5
A15
330
1F
100
AcDbEntity
  8
外形線
  6
CONTINUOUS
100
AcDbCircle
 10
140.6481553200911
 20
124.9807198763472
 30
0.0
 40
0.5
100
AcDbArc
 50
180.0
 51
0.0
  0
ARC
  5
A16
330
1F
100
AcDbEntity
  8
外形線
  6
CONTINUOUS
100
AcDbCircle
 10
140.6481553200911
 20
49.18071987634721
 30
0.0
 40
0.5
100
AcDbArc
 50
0.0
 51
180.0
  0
LINE
  5
A18
330
1F
100
AcDbEntity
  8
外形線
  6
CONTINUOUS
100
AcDbLine
 10
49.34815532009105
 20
49.18071987634721
 30
0.0
 11
38.44815532009105
 21
49.18071987634721
 31
0.0
  0
LINE
  5
A63
330
1F
100
AcDbEntity
  8
外形線
  6
CONTINUOUS
100
AcDbLine
 10
50.34815532009105
 20
136.3807198763472
 30
0.0
 11
50.34815532009105
 21
124.9807198763472
 31
0.0
  0
LINE
  5
A64
330
1F
100
AcDbEntity
  8
外形線
  6
CONTINUOUS
100
AcDbLine
 10
140.1481553200911
 20
136.3807198763472
 30
0.0
 11
140.1481553200911
 21
124.9807198763472
 31
0.0
  0
LINE
  5
A65
330
1F
100
AcDbEntity
  8
外形線
  6
CONTINUOUS
100
AcDbLine
 10
50.34815532009105
 20
49.18071987634721
 30
0.0
 11
50.34815532009105
 21
37.78071987634721
 31
0.0
  0
LINE
  5
A66
330
1F
100
AcDbEntity
  8
外形線
  6
CONTINUOUS
100
AcDbLine
 10
140.1481553200911
 20
49.18071987634721
 30
0.0
 11
140.1481553200911
 21
37.78071987634721
 31
0.0
  0
LINE
  5
A68
330
1F
100
AcDbEntity
  8
外形線
  6
CONTINUOUS
100
AcDbLine
 10
54.84815532009105
 20
48.18071987634721
 30
0.0
 11
64.84815532009105
 21
48.18071987634721
 31
0.0
  0
LINE
  5
A69
330
1F
100
AcDbEntity
  8
外形線
  6
CONTINUOUS
100
AcDbLine
 10
54.84815532009105
 20
125.9807198763472
 30
0.0
 11
64.84815532009105
 21
125.9807198763472
 31
0.0
  0
LINE
  5
A6A
330
1F
100
AcDbEntity
  8
外形線
  6
CONTINUOUS
100
AcDbLine
 10
48.84815532009105
 20
54.18071987634721
 30
0.0
 11
48.84815532009105
 21
64.18071987634721
 31
0.0
  0
LINE
  5
A6B
330
1F
100
AcDbEntity
  8
外形線
  6
CONTINUOUS
100
AcDbLine
 10
141.6481553200911
 20
119.9807198763472
 30
0.0
 11
141.6481553200911
 21
109.9807198763472
 31
0.0
  0
LINE
  5
A7A
330
1F
100
AcDbEntity
  8
外形線
  6
CONTINUOUS
100
AcDbLine
 10
48.84815532009105
 20
69.18071987634721
 30
0.0
 11
48.84815532009105
 21
84.18071987634721
 31
0.0
  0
LINE
  5
A7B
330
1F
100
AcDbEntity
  8
外形線
  6
CONTINUOUS
100
AcDbLine
 10
141.6481553200911
 20
64.18071987634721
 30
0.0
 11
141.6481553200911
 21
54.18071987634721
 31
0.0
  0
LINE
  5
A7C
330
1F
100
AcDbEntity
  8
外形線
  6
CONTINUOUS
100
AcDbLine
 10
48.84815532009105
 20
109.9807198763472
 30
0.0
 11
48.84815532009105
 21
119.9807198763472
 31
0.0
  0
LINE
  5
A7D
330
1F
100
AcDbEntity
  8
外形線
  6
CONTINUOUS
100
AcDbLine
 10
141.6481553200911
 20
104.9807198763472
 30
0.0
 11
141.6481553200911
 21
89.9807198763472
 31
0.0
  0
LINE
  5
A7E
330
1F
100
AcDbEntity
  8
外形線
  6
CONTINUOUS
100
AcDbLine
 10
48.84815532009105
 20
89.9807198763472
 30
0.0
 11
48.84815532009105
 21
104.9807198763472
 31
0.0
  0
LINE
  5
A7F
330
1F
100
AcDbEntity
  8
外形線
  6
CONTINUOUS
100
AcDbLine
 10
141.6481553200911
 20
84.18071987634721
 30
0.0
 11
141.6481553200911
 21
69.18071987634721
 31
0.0
  0
LINE
  5
A99
330
1F
100
AcDbEntity
  8
外形線
  6
CONTINUOUS
100
AcDbLine
 10
69.84815532009105
 20
125.9807198763472
 30
0.0
 11
79.84815532009105
 21
125.9807198763472
 31
0.0
  0
LINE
  5
A9A
330
1F
100
AcDbEntity
  8
外形線
  6
CONTINUOUS
100
AcDbLine
 10
69.84815532009105
 20
48.18071987634721
 30
0.0
 11
79.84815532009105
 21
48.18071987634721
 31
0.0
  0
LINE
  5
A9B
330
1F
100
AcDbEntity
  8
外形線
  6
CONTINUOUS
100
AcDbLine
 10
84.84815532009105
 20
125.9807198763472
 30
0.0
 11
92.84815532009105
 21
125.9807198763472
 31
0.0
  0
LINE
  5
A9C
330
1F
100
AcDbEntity
  8
外形線
  6
CONTINUOUS
100
AcDbLine
 10
84.84815532009105
 20
48.18071987634721
 30
0.0
 11
92.84815532009105
 21
48.18071987634721
 31
0.0
  0
LINE
  5
A9D
330
1F
100
AcDbEntity
  8
外形線
  6
CONTINUOUS
100
AcDbLine
 10
125.6481553200911
 20
125.9807198763472
 30
0.0
 11
135.6481553200911
 21
125.9807198763472
 31
0.0
  0
LINE
  5
A9E
330
1F
100
AcDbEntity
  8
外形線
  6
CONTINUOUS
100
AcDbLine
 10
125.6481553200911
 20
48.18071987634721
 30
0.0
 11
135.6481553200911
 21
48.18071987634721
 31
0.0
  0
LINE
  5
A9F
330
1F
100
AcDbEntity
  8
外形線
  6
CONTINUOUS
100
AcDbLine
 10
110.6481553200911
 20
125.9807198763472
 30
0.0
 11
120.6481553200911
 21
125.9807198763472
 31
0.0
  0
LINE
  5
AA0
330
1F
100
AcDbEntity
  8
外形線
  6
CONTINUOUS
100
AcDbLine
 10
110.6481553200911
 20
48.18071987634721
 30
0.0
 11
120.6481553200911
 21
48.18071987634721
 31
0.0
  0
LINE
  5
AA3
330
1F
100
AcDbEntity
  8
外形線
  6
CONTINUOUS
100
AcDbLine
 10
97.64815532009109
 20
125.9807198763472
 30
0.0
 11
105.6481553200911
 21
125.9807198763472
 31
0.0
  0
LINE
  5
AA4
330
1F
100
AcDbEntity
  8
外形線
  6
CONTINUOUS
100
AcDbLine
 10
97.64815532009109
 20
48.18071987634721
 30
0.0
 11
105.6481553200911
 21
48.18071987634721
 31
0.0
  0
LINE
  5
AAC
330
1F
100
AcDbEntity
  8
外形線
  6
CONTINUOUS
100
AcDbLine
 10
55.84815532009105
 20
128.3807198763472
 30
0.0
 11
64.84815532009105
 21
128.3807198763472
 31
0.0
  0
LINE
  5
AAE
330
1F
100
AcDbEntity
  8
外形線
  6
CONTINUOUS
100
AcDbLine
 10
44.44815532009105
 20
111.9807198763472
 30
0.0
 11
44.44815532009105
 21
98.98071987634721
 31
0.0
  0
ENDSEC
  0
SECTION
  2
OBJECTS
  0
DICTIONARY
  5
C
330
0
100
AcDbDictionary
  3
ACAD_DETAILVIEWSTYLE
350
B5
  3
ACAD_GROUP
350
D
  3
ACAD_IMAGE_VARS
350
6A
  3
ACAD_MLINESTYLE
350
17
  3
ACAD_SCALELIST
350
A1E
  3
ACAD_SECTIONVIEWSTYLE
350
B6
  3
ACDBVARIABLEDICTIONARY
350
3D
  3
APPDATA
350
71
  3
DWGPROPS
350
AAF
1001
ACAD
1000
TREAT_AS_HARD
1070
     0
  0
DICTIONARY
  5
B7
330
2
100
AcDbDictionary
  3
ACAD_LAYERSTATES
360
B8
  3
ACLYDICTIONARY
360
C1
1001
ACAD
1000
TREAT_AS_HARD
1070
     1
  0
DICTIONARY
  5
B5
102
{ACAD_REACTORS
330
C
102
}
330
C
100
AcDbDictionary
1001
ACAD
1000
TREAT_AS_HARD
1070
     0
  0
DICTIONARY
  5
D
102
{ACAD_REACTORS
330
C
102
}
330
C
100
AcDbDictionary
1001
ACAD
1000
TREAT_AS_HARD
1070
     0
  0
RASTERVARIABLES
  5
6A
102
{ACAD_REACTORS
330
C
102
}
330
C
100
AcDbRasterVariables
 90
        0
 70
     1
 71
     1
 72
     1
  0
DICTIONARY
  5
17
102
{ACAD_REACTORS
330
C
102
}
330
C
100
AcDbDictionary
  3
STANDARD
350
18
1001
ACAD
1000
TREAT_AS_HARD
1070
     0
  0
DICTIONARY
  5
A1E
102
{ACAD_REACTORS
330
C
102
}
330
C
100
AcDbDictionary
1001
ACAD
1000
TREAT_AS_HARD
1070
     0
  0
DICTIONARY
  5
B6
102
{ACAD_REACTORS
330
C
102
}
330
C
100
AcDbDictionary
1001
ACAD
1000
TREAT_AS_HARD
1070
     0
  0
DICTIONARY
  5
3D
102
{ACAD_REACTORS
330
C
102
}
330
C
100
AcDbDictionary
1001
ACAD
1000
TREAT_AS_HARD
1070
     0
  0
DICTIONARY
  5
71
102
{ACAD_REACTORS
330
C
102
}
330
C
100
AcDbDictionary
1001
ACAD
1000
TREAT_AS_HARD
1070
     0
  0
XRECORD
  5
AAF
102
{ACAD_REACTORS
330
C
102
}
330
C
100
AcDbXrecord
  1
DWGPROPS COOKIE
  2

  3

  4

  6

  7

  8
Mizuki
  9

300
=
301
=
302
=
303
=
304
=
305
=
306
=
307
=
308
=
309
=
 40
0.0
 41
2455022.637359514
 42
2456881.397966516
  1

 90
        0
  0
DICTIONARY
  5
B8
102
{ACAD_REACTORS
330
B7
102
}
330
B7
100
AcDbDictionary
1001
ACAD
1000
TREAT_AS_HARD
1070
     0
  0
DICTIONARY
  5
C1
102
{ACAD_REACTORS
330
B7
102
}
330
B7
100
AcDbDictionary
1001
ACAD
1000
<All
1000
TREAT_AS_HARD
1070
     0
  0
MLINESTYLE
  5
18
102
{ACAD_REACTORS
330
17
102
}
330
17
100
AcDbMlineStyle
  2
Standard
 70
     0
  3

 62
   256
 51
90.0
 52
90.0
 71
     2
 49
0.5
 62
   256
  6
BYLAYER
 49
-0.5
 62
   256
  6
BYLAYER
  0
ENDSEC
  0
EOF
